<svg xmlns="http://www.w3.org/2000/svg" xmlns:xlink="http://www.w3.org/1999/xlink" id="visual" version="1.1" viewBox="0 179.12 1000 121.88"><path d="M0 181L16.7 183.3C33.3 185.7 66.7 190.3 100 196.8C133.3 203.3 166.7 211.7 200 209.3C233.3 207 266.7 194 300 186.5C333.3 179 366.7 177 400 181.5C433.3 186 466.7 197 500 199.3C533.3 201.7 566.7 195.3 600 196.3C633.3 197.3 666.7 205.7 700 210C733.3 214.3 766.7 214.7 800 210.2C833.3 205.7 866.7 196.3 900 190.5C933.3 184.7 966.7 182.3 983.3 181.2L1000 180L1000 301L983.3 301C966.7 301 933.3 301 900 301C866.7 301 833.3 301 800 301C766.7 301 733.3 301 700 301C666.7 301 633.3 301 600 301C566.7 301 533.3 301 500 301C466.7 301 433.3 301 400 301C366.7 301 333.3 301 300 301C266.7 301 233.3 301 200 301C166.7 301 133.3 301 100 301C66.7 301 33.3 301 16.7 301L0 301Z" fill="#a6d65c"/><path d="M0 239L16.7 237.3C33.3 235.7 66.7 232.3 100 232C133.3 231.7 166.7 234.3 200 229.2C233.3 224 266.7 211 300 206.2C333.3 201.3 366.7 204.7 400 210C433.3 215.3 466.7 222.7 500 222.2C533.3 221.7 566.7 213.3 600 210.7C633.3 208 666.7 211 700 216.2C733.3 221.3 766.7 228.7 800 230.2C833.3 231.7 866.7 227.3 900 224.5C933.3 221.7 966.7 220.3 983.3 219.7L1000 219L1000 301L983.3 301C966.7 301 933.3 301 900 301C866.7 301 833.3 301 800 301C766.7 301 733.3 301 700 301C666.7 301 633.3 301 600 301C566.7 301 533.3 301 500 301C466.7 301 433.3 301 400 301C366.7 301 333.3 301 300 301C266.7 301 233.3 301 200 301C166.7 301 133.3 301 100 301C66.7 301 33.3 301 16.7 301L0 301Z" fill="#84be4a"/><path d="M0 237L16.7 234.7C33.3 232.3 66.7 227.7 100 228C133.3 228.3 166.7 233.7 200 238.7C233.3 243.7 266.7 248.3 300 248C333.3 247.7 366.7 242.3 400 241.7C433.3 241 466.7 245 500 243.2C533.3 241.3 566.7 233.7 600 229.2C633.3 224.7 666.7 223.3 700 225.7C733.3 228 766.7 234 800 239C833.3 244 866.7 248 900 249.2C933.3 250.3 966.7 248.7 983.3 247.8L1000 247L1000 301L983.3 301C966.7 301 933.3 301 900 301C866.7 301 833.3 301 800 301C766.7 301 733.3 301 700 301C666.7 301 633.3 301 600 301C566.7 301 533.3 301 500 301C466.7 301 433.3 301 400 301C366.7 301 333.3 301 300 301C266.7 301 233.3 301 200 301C166.7 301 133.3 301 100 301C66.7 301 33.3 301 16.7 301L0 301Z" fill="#61a738"/><path d="M0 250L16.7 250.5C33.3 251 66.7 252 100 252.2C133.3 252.3 166.7 251.7 200 254.2C233.3 256.7 266.7 262.3 300 264.2C333.3 266 366.7 264 400 260.5C433.3 257 466.7 252 500 251.2C533.3 250.3 566.7 253.7 600 255.3C633.3 257 666.7 257 700 255.3C733.3 253.7 766.7 250.3 800 249C833.3 247.7 866.7 248.3 900 251.5C933.3 254.7 966.7 260.3 983.3 263.2L1000 266L1000 301L983.3 301C966.7 301 933.3 301 900 301C866.7 301 833.3 301 800 301C766.7 301 733.3 301 700 301C666.7 301 633.3 301 600 301C566.7 301 533.3 301 500 301C466.7 301 433.3 301 400 301C366.7 301 333.3 301 300 301C266.7 301 233.3 301 200 301C166.7 301 133.3 301 100 301C66.7 301 33.3 301 16.7 301L0 301Z" fill="#3d9027"/><path d="M0 274L16.7 272.3C33.3 270.7 66.7 267.3 100 268.7C133.3 270 166.7 276 200 277.7C233.3 279.3 266.7 276.7 300 274.7C333.3 272.7 366.7 271.3 400 272.3C433.3 273.3 466.7 276.7 500 279C533.3 281.3 566.7 282.7 600 282.2C633.3 281.7 666.7 279.3 700 277.7C733.3 276 766.7 275 800 274.7C833.3 274.3 866.7 274.7 900 276.5C933.3 278.3 966.7 281.7 983.3 283.3L1000 285L1000 301L983.3 301C966.7 301 933.3 301 900 301C866.7 301 833.3 301 800 301C766.7 301 733.3 301 700 301C666.7 301 633.3 301 600 301C566.7 301 533.3 301 500 301C466.7 301 433.3 301 400 301C366.7 301 333.3 301 300 301C266.7 301 233.3 301 200 301C166.7 301 133.3 301 100 301C66.7 301 33.3 301 16.7 301L0 301Z" fill="#057a16"/></svg>