<svg id="visual" viewBox="0 0 900 200" width="900" height="200" xmlns="http://www.w3.org/2000/svg" xmlns:xlink="http://www.w3.org/1999/xlink" version="1.1"><rect width="900" height="200" fill="#009473"></rect><g><g transform="translate(713 187)"><path d="M12.6 -20.5C15.4 -12.6 16.2 -7.8 22.7 0.3C29.3 8.4 41.5 19.7 41.6 28.2C41.7 36.7 29.6 42.3 17.5 45.7C5.4 49 -6.6 50.1 -18 47C-29.3 43.9 -40.1 36.6 -47.1 26.3C-54.1 16 -57.5 2.6 -51.8 -5.6C-46.1 -13.8 -31.5 -17 -21.4 -23.5C-11.2 -30.1 -5.6 -40.1 -0.4 -39.7C4.9 -39.2 9.8 -28.4 12.6 -20.5Z" stroke="#10A483" fill="none" stroke-width="20"></path></g><g transform="translate(140 11)"><path d="M19.7 -23.6C25.1 -19 28.8 -12.3 28.7 -6.1C28.5 0.2 24.7 6.1 21.1 12.1C17.5 18 14.2 24.1 9.2 26.5C4.1 28.9 -2.8 27.8 -8 24.7C-13.2 21.6 -16.7 16.7 -17.3 11.8C-17.8 7 -15.3 2.4 -14.3 -2.4C-13.3 -7.2 -13.8 -12.1 -11.6 -17.3C-9.5 -22.6 -4.7 -28.2 1.2 -29.6C7.2 -31.1 14.3 -28.3 19.7 -23.6Z" stroke="#10A483" fill="none" stroke-width="20"></path></g><g transform="translate(120 199)"><path d="M13.8 -19.5C17.3 -13.5 19.2 -8.6 18.5 -4.4C17.9 -0.3 14.6 3.1 13.5 10.5C12.5 17.8 13.6 29 9.5 33.9C5.4 38.7 -3.8 37.2 -10.2 32.8C-16.6 28.4 -20.2 21.1 -21.1 14.6C-22 8.1 -20.3 2.4 -21.4 -6C-22.6 -14.4 -26.7 -25.6 -23.6 -31.7C-20.5 -37.8 -10.3 -38.8 -2.6 -35.7C5.1 -32.7 10.2 -25.5 13.8 -19.5Z" stroke="#10A483" fill="none" stroke-width="20"></path></g><g transform="translate(546 42)"><path d="M18.1 -18.7C24.4 -16.3 30.9 -11.5 30.2 -6.6C29.5 -1.8 21.6 3 16.9 8.4C12.2 13.8 10.8 19.8 7 22.7C3.2 25.6 -3 25.4 -9.9 24.2C-16.7 23 -24.2 20.6 -25.7 15.9C-27.2 11.1 -22.7 4 -19.6 -1.6C-16.4 -7.2 -14.6 -11.2 -11.5 -14.1C-8.5 -17.1 -4.3 -18.9 0.8 -20C5.9 -21 11.9 -21.1 18.1 -18.7Z" stroke="#10A483" fill="none" stroke-width="20"></path></g><g transform="translate(866 106)"><path d="M19.6 -24.7C25.6 -18.4 30.8 -12.4 32.7 -5.3C34.5 1.8 33 10 28.2 14.4C23.4 18.9 15.4 19.7 7.3 24.6C-0.9 29.6 -9.1 38.8 -14.8 37.9C-20.4 37 -23.4 26.1 -28 16.8C-32.5 7.5 -38.6 -0.2 -39.5 -9C-40.4 -17.9 -36.1 -27.9 -28.6 -33.9C-21.2 -40 -10.6 -42.1 -1.9 -39.8C6.8 -37.5 13.6 -31 19.6 -24.7Z" stroke="#10A483" fill="none" stroke-width="20"></path></g></g></svg>