<svg id="visual" viewBox="0 0 900 200" width="900" height="200" xmlns="http://www.w3.org/2000/svg" xmlns:xlink="http://www.w3.org/1999/xlink" version="1.1"><rect width="900" height="200" fill="#F7770F"></rect><g><g transform="translate(407 90)"><path d="M0 -84.9L73.5 -42.4L73.5 42.4L0 84.9L-73.5 42.4L-73.5 -42.4Z" fill="#fc8134"></path></g><g transform="translate(179 145)"><path d="M0 -48L41.6 -24L41.6 24L0 48L-41.6 24L-41.6 -24Z" fill="#fc8134"></path></g><g transform="translate(833 98)"><path d="M0 -49L42.4 -24.5L42.4 24.5L0 49L-42.4 24.5L-42.4 -24.5Z" fill="#fc8134"></path></g><g transform="translate(583 37)"><path d="M0 -76L65.8 -38L65.8 38L0 76L-65.8 38L-65.8 -38Z" fill="#fc8134"></path></g></g></svg>